M48
;Layer_Color=9474304
;FILE_FORMAT=4:4
METRIC,LZ
;TYPE=PLATED
T1F00S00C0.6000
T2F00S00C0.8000
T3F00S00C1.0000
T5F00S00C3.2000
;TYPE=NON_PLATED
T6F00S00C3.2000
%
T01
X0121175Y00621
X01228Y0068125
X01293445Y00742517
X01346649Y00737
X01348149Y0061375
X0116025Y0070025
X0116125Y0075875
X0108125Y007505
Y00775
X00951Y0077175
Y007525
Y0073375
X009525Y00696186
X0089525Y006935
X008775Y0069325
X00845Y0070975
X00843867Y00728
X00843298Y00746798
X0084325Y007655
X008595Y0078275
X0084525Y0067575
X008125Y0064675
X0080675Y0061925
X0088475Y006195
X010505Y00608
X00792Y00741
X0079225Y007835
X006595Y00737
Y0061375
Y00875
X00669Y0096975
X00704
X00739
X00774
X00634
X00599
X00564
X00529
X007475Y01155
X007995Y01146
X008525Y01155
X00863Y0112225
Y0108
X00903Y01146
X009575Y01155
X01035Y011515
X01105
X0115525Y0115175
X0115125Y0096975
X0118625
X0111625
X0105025Y00875
X009255Y0087385
X00899Y00875
X0087Y0087385
X00844Y0096975
X00809
X011615Y0080075
X012285Y0081571
X01293Y008015
X01346649Y00875
X0134275Y0096975
X0137775
X0141275
X0144775
X0122125
X0124225Y010805
X0129225
X0126625Y0111825
X01216Y0114175
T02
X0123025Y0055625
Y0058175
X01158418Y0058225
Y0055725
X0108975
Y0058225
X01021667
Y0055725
X01129Y0073125
X0112875Y0075675
X01129Y0078175
X007595Y00771833
X0075925Y00746833
X007595Y00721332
X00759Y006675
Y0064225
Y00617
Y0059175
Y005665
X007595Y00797333
X007595Y00850415
Y00875915
X0082875
Y00850415
X0097102Y00893004
X0099002
X0100902
X01129Y0080725
T03
X0085695Y0055925
X0088235
X0090775
X0093315
X0095855
X0095645Y00596
X0093105
X0090565
X0088025
X0085485
X0085825Y00642
X0088365
X0090905
T05
X0079975Y0102275
X00799Y010975
X0117975Y0110025
X011805Y010255
T06
X0057925Y009255
X0140075
M30
