M48
;Layer_Color=9474304
;FILE_FORMAT=4:4
METRIC,LZ
;TYPE=PLATED
T1F00S00C0.6000
T2F00S00C0.7620
T3F00S00C0.8000
T4F00S00C0.9000
T6F00S00C3.0000
T7F00S00C3.3000
%
T01
X0121175Y00621
X01228Y0068125
X01293445Y00742517
X01322Y0076925
X0116125Y0075875
X0116025Y0070025
X0108075Y007505
X0108125Y00775
X009535Y0077075
X00952875Y00754375
X00952793Y00732561
X009525Y00696186
X0089525Y006935
X008775Y0069325
X00845Y0070975
X00843867Y00728
X00843298Y00746798
X0084325Y007655
X008595Y0078275
X0084525Y0067575
X008125Y0064675
X0080675Y0061925
X0088475Y006195
X010505Y00608
X0069225Y0061225
Y007355
X00792Y00741
X0079225Y007835
X0069225Y0085375
X00704Y0096475
X00739
X00774
X00669
X00634
X00599
X00564
X00529
X007475Y01155
X007995Y01146
X008525Y01155
X00863Y0112225
Y0108
X00903Y01146
X009575Y01155
X01035Y011515
X01105
X0115525Y0115175
X0115125Y0096475
X0118625
X0111625
X0105025Y00857
X01009Y00864
X00899Y00875
X00844Y0096475
X00809
X011615Y0080075
X012285Y0081571
X01293Y008015
X013205Y0082675
Y008755
X0134275Y0096475
X0137775
X0141275
X0144775
X0122125
X0124225Y010805
X0129225
X0126625Y0111825
X01216Y0114175
T02
X0123025Y0055975
Y0058525
X01151668Y0058125
Y0055625
X01083585
Y0058125
X01014085
Y0055625
X01126Y00726
X0112575Y007515
X01126Y007765
X007595Y0077325
X0075925Y0074825
X007595Y0072275
X0075875Y00668917
Y00643668
Y00618418
Y00593167
Y00567918
X007595Y0079875
Y008645
Y0089
X008425Y008885
Y00863
X01126Y00802
T03
X0097102Y00893004
X0099002
X0100902
T04
X008602Y00554
X008856
X00911
X009364
X009618
X0096015Y005955
X0093475
X0090935
X0088395
X0085855
X0085825Y00642
X0088365
X0090905
T06
X0057925Y009255
X0140075
T07
X0079975Y0102275
X00799Y010975
X0117975Y0110025
X011805Y010255
M30
