G04*
G04 #@! TF.GenerationSoftware,Altium Limited,Altium Designer,20.0.11 (256)*
G04*
G04 Layer_Physical_Order=2*
G04 Layer_Color=16711680*
%FSLAX44Y44*%
%MOMM*%
G71*
G01*
G75*
G04:AMPARAMS|DCode=13|XSize=10.524mm|YSize=6.524mm|CornerRadius=3.262mm|HoleSize=0mm|Usage=FLASHONLY|Rotation=0.000|XOffset=0mm|YOffset=0mm|HoleType=Round|Shape=RoundedRectangle|*
%AMROUNDEDRECTD13*
21,1,10.5240,0.0000,0,0,0.0*
21,1,4.0000,6.5240,0,0,0.0*
1,1,6.5240,2.0000,0.0000*
1,1,6.5240,-2.0000,0.0000*
1,1,6.5240,-2.0000,0.0000*
1,1,6.5240,2.0000,0.0000*
%
%ADD13ROUNDEDRECTD13*%
G04:AMPARAMS|DCode=26|XSize=10mm|YSize=6mm|CornerRadius=3mm|HoleSize=0mm|Usage=FLASHONLY|Rotation=0.000|XOffset=0mm|YOffset=0mm|HoleType=Round|Shape=RoundedRectangle|*
%AMROUNDEDRECTD26*
21,1,10.0000,0.0000,0,0,0.0*
21,1,4.0000,6.0000,0,0,0.0*
1,1,6.0000,2.0000,0.0000*
1,1,6.0000,-2.0000,0.0000*
1,1,6.0000,-2.0000,0.0000*
1,1,6.0000,2.0000,0.0000*
%
%ADD26ROUNDEDRECTD26*%
%ADD28C,0.6000*%
%ADD29C,0.4000*%
%ADD30C,0.9000*%
%ADD33C,1.5000*%
%ADD34C,1.5240*%
G04:AMPARAMS|DCode=35|XSize=5.97mm|YSize=2.043mm|CornerRadius=1.0215mm|HoleSize=0mm|Usage=FLASHONLY|Rotation=0.000|XOffset=0mm|YOffset=0mm|HoleType=Round|Shape=RoundedRectangle|*
%AMROUNDEDRECTD35*
21,1,5.9700,0.0000,0,0,0.0*
21,1,3.9270,2.0430,0,0,0.0*
1,1,2.0430,1.9635,0.0000*
1,1,2.0430,-1.9635,0.0000*
1,1,2.0430,-1.9635,0.0000*
1,1,2.0430,1.9635,0.0000*
%
%ADD35ROUNDEDRECTD35*%
%ADD36C,4.0000*%
G36*
X984002Y1164696D02*
X985307Y1164374D01*
X986509Y1163774D01*
X987550Y1162924D01*
X988379Y1161865D01*
X988955Y1160651D01*
X989250Y1159340D01*
X989250Y1158668D01*
X989250Y1136010D01*
X986750D01*
X985759Y1135813D01*
X984919Y1135251D01*
X984357Y1134411D01*
X984160Y1133420D01*
X984160Y1078080D01*
X984357Y1077089D01*
X984919Y1076249D01*
X985759Y1075687D01*
X986750Y1075490D01*
X989250D01*
Y1073750D01*
X989250Y1073750D01*
Y1072660D01*
X988912Y1070506D01*
X988245Y1068431D01*
X987265Y1066484D01*
X985994Y1064712D01*
X984465Y1063159D01*
X982714Y1061861D01*
X980782Y1060850D01*
X979750Y1060500D01*
X744210Y1060500D01*
X743000Y1060836D01*
X740720Y1061891D01*
X738640Y1063301D01*
X736816Y1065029D01*
X735296Y1067030D01*
X734119Y1069249D01*
X733317Y1071630D01*
X732911Y1074110D01*
X732911Y1075366D01*
X732911Y1150464D01*
X732911Y1151660D01*
X732911Y1151660D01*
X732911Y1151661D01*
X732911Y1151661D01*
X732911Y1152934D01*
X733407Y1155432D01*
X734382Y1157785D01*
X735797Y1159902D01*
X737598Y1161703D01*
X739715Y1163118D01*
X742068Y1164093D01*
X744566Y1164590D01*
X745840Y1164590D01*
X982000Y1164590D01*
X982000Y1164589D01*
Y1164589D01*
X982004Y1164590D01*
X983170Y1164713D01*
X984002Y1164696D01*
D02*
G37*
G36*
X1306077Y1163035D02*
X1309594Y1159862D01*
X1311629Y1155584D01*
X1311750Y1153219D01*
X1311750Y1075594D01*
X1311750Y1075594D01*
X1311750Y1072877D01*
X1309688Y1067849D01*
X1305871Y1063979D01*
X1300872Y1061847D01*
X1298155Y1061809D01*
X1257700Y1061246D01*
X1257700Y1061245D01*
X1257675Y1061247D01*
X1257625Y1061248D01*
X1257575Y1061249D01*
X1257525Y1061250D01*
X1200997D01*
X1200500Y1061349D01*
X1160500D01*
X1160003Y1061250D01*
X1003500Y1061250D01*
X1001362Y1061250D01*
X997410Y1062886D01*
X994386Y1065910D01*
X992750Y1069862D01*
X992750Y1072000D01*
Y1075331D01*
X993250D01*
X995194Y1076136D01*
X995999Y1078080D01*
Y1133420D01*
X995194Y1135364D01*
X993250Y1136169D01*
X992750D01*
X992750Y1157938D01*
X992750Y1159209D01*
X993018Y1160432D01*
X994020Y1162150D01*
X994902Y1162952D01*
X995836Y1163730D01*
X997967Y1164501D01*
X999100Y1164500D01*
X1299249Y1164500D01*
X1299249Y1164500D01*
X1299249Y1164500D01*
X1301614Y1164621D01*
X1306077Y1163035D01*
D02*
G37*
G36*
X698750Y1164250D02*
X704369D01*
X714752Y1159949D01*
X722699Y1152002D01*
X727000Y1141619D01*
X727000Y1136000D01*
X727000Y1069249D01*
X727216Y1067055D01*
X728895Y1062999D01*
X731999Y1059895D01*
X736055Y1058216D01*
X738250Y1058000D01*
X1304025Y1058000D01*
X1305251Y1058000D01*
X1305251Y1058000D01*
X1308079Y1058278D01*
X1313307Y1060442D01*
X1317308Y1064443D01*
X1319472Y1069671D01*
X1319750Y1072500D01*
X1319750Y1140303D01*
X1319750Y1141499D01*
X1319750Y1141500D01*
X1319750Y1141500D01*
X1319750Y1146025D01*
X1323213Y1154387D01*
X1329613Y1160787D01*
X1337975Y1164250D01*
X1342500Y1164250D01*
X1448250Y1164250D01*
X1448250Y1164250D01*
X1448250Y1164250D01*
X1452775Y1164250D01*
X1461137Y1160786D01*
X1467536Y1154387D01*
X1471000Y1146025D01*
X1471000Y1141500D01*
X1471000Y907500D01*
X1470999Y907499D01*
Y905013D01*
X1469096Y900419D01*
X1465580Y896903D01*
X1460986Y895000D01*
X1458500D01*
X1404500Y895000D01*
X1404499Y894999D01*
X1400842Y894639D01*
X1396561Y892866D01*
X1396254Y892805D01*
X1395993Y892631D01*
X1394083Y891840D01*
X1392621Y890377D01*
X1391213Y889436D01*
X1390272Y888028D01*
X1388910Y886666D01*
X1388173Y884887D01*
X1387844Y884395D01*
X1387729Y883816D01*
X1386110Y879908D01*
X1385750Y876250D01*
X1385750Y549000D01*
X1385749Y548999D01*
X1385749Y544424D01*
X1382248Y535971D01*
X1375778Y529501D01*
X1367325Y526000D01*
X635249D01*
X629431Y526000D01*
X618681Y530453D01*
X610453Y538681D01*
X606000Y549432D01*
X606000Y555250D01*
X606000Y877260D01*
X606000Y877260D01*
X605999Y877260D01*
X605693Y880379D01*
X603311Y886146D01*
X598906Y890566D01*
X593148Y892969D01*
X590029Y893287D01*
X527712Y893507D01*
X523733Y893521D01*
X516390Y896585D01*
X510774Y902222D01*
X507736Y909575D01*
X507736Y913553D01*
X507737Y1138236D01*
X507737Y1138236D01*
X507737Y1138236D01*
X507737Y1143411D01*
X511697Y1152972D01*
X519015Y1160290D01*
X528576Y1164250D01*
X533750Y1164250D01*
X698750Y1164250D01*
Y1164250D01*
D02*
G37*
%LPC*%
G36*
X1400750Y947187D02*
X1392451Y945536D01*
X1385415Y940835D01*
X1380714Y933799D01*
X1379063Y925500D01*
X1380714Y917201D01*
X1385415Y910165D01*
X1392451Y905464D01*
X1400750Y903813D01*
X1409049Y905464D01*
X1416085Y910165D01*
X1420786Y917201D01*
X1422437Y925500D01*
X1420786Y933799D01*
X1416085Y940835D01*
X1409049Y945536D01*
X1400750Y947187D01*
D02*
G37*
G36*
X579250D02*
X570951Y945536D01*
X563915Y940835D01*
X559214Y933799D01*
X557563Y925500D01*
X559214Y917201D01*
X563915Y910165D01*
X570951Y905464D01*
X579250Y903813D01*
X587549Y905464D01*
X594585Y910165D01*
X599286Y917201D01*
X600937Y925500D01*
X599286Y933799D01*
X594585Y940835D01*
X587549Y945536D01*
X579250Y947187D01*
D02*
G37*
G36*
X1009020Y902626D02*
X1002216Y899808D01*
X1000090Y894676D01*
X998820D01*
X996732Y899716D01*
X990020Y902496D01*
X983308Y899716D01*
X981220Y894676D01*
X979950D01*
X977824Y899808D01*
X971020Y902626D01*
X964216Y899808D01*
X961397Y893004D01*
X964216Y886200D01*
X965312Y885746D01*
X964775Y884448D01*
Y872730D01*
X966604Y868314D01*
X1009505Y825413D01*
Y642750D01*
X1011334Y638334D01*
X1041201Y608467D01*
X1041008Y608000D01*
X1043788Y601288D01*
X1044255Y601094D01*
Y588670D01*
X1022134Y566549D01*
X1021667Y566743D01*
X1014955Y563962D01*
X1012175Y557250D01*
X1012368Y556783D01*
X999831Y544245D01*
X880787D01*
X866249Y558783D01*
X866443Y559250D01*
X863662Y565962D01*
X856950Y568743D01*
X856483Y568549D01*
X835970Y589062D01*
Y621888D01*
X849837Y635755D01*
X851345D01*
X851538Y635288D01*
X858250Y632508D01*
X864962Y635288D01*
X867743Y642000D01*
X864962Y648712D01*
X858250Y651493D01*
X851538Y648712D01*
X851345Y648246D01*
X847250D01*
X842834Y646416D01*
X828500Y632082D01*
X819603Y640980D01*
X821993Y646750D01*
X819212Y653462D01*
X812500Y656243D01*
X805788Y653462D01*
X803008Y646750D01*
X805788Y640038D01*
X806255Y639844D01*
Y639250D01*
X808084Y634834D01*
X823480Y619438D01*
Y589062D01*
X807163Y572745D01*
X765906D01*
X765712Y573212D01*
X759000Y575993D01*
X752288Y573212D01*
X749507Y566500D01*
X752288Y559788D01*
X759000Y557007D01*
X765712Y559788D01*
X765906Y560255D01*
X809750D01*
X814166Y562084D01*
X829725Y577643D01*
X847651Y559717D01*
X847458Y559250D01*
X850238Y552538D01*
X856950Y549757D01*
X857417Y549951D01*
X873784Y533584D01*
X878200Y531755D01*
X1002418D01*
X1006834Y533584D01*
X1021201Y547951D01*
X1021667Y547757D01*
X1028380Y550538D01*
X1028573Y551005D01*
X1082844D01*
X1083038Y550538D01*
X1089750Y547757D01*
X1096462Y550538D01*
X1096656Y551005D01*
X1151512D01*
X1151705Y550538D01*
X1158418Y547757D01*
X1165050Y550505D01*
X1223137D01*
X1223538Y549538D01*
X1230250Y546757D01*
X1236962Y549538D01*
X1239743Y556250D01*
X1236962Y562962D01*
X1230250Y565743D01*
X1223618Y562995D01*
X1175987D01*
X1175501Y564169D01*
X1215916Y604584D01*
X1217745Y609000D01*
X1217745Y609000D01*
Y613991D01*
X1218462Y614288D01*
X1221243Y621000D01*
X1218462Y627712D01*
X1211750Y630493D01*
X1205038Y627712D01*
X1202257Y621000D01*
X1205038Y614288D01*
X1205255Y614198D01*
Y611587D01*
X1159827Y566159D01*
X1158418Y566743D01*
X1151705Y563962D01*
X1151512Y563495D01*
X1096656D01*
X1096462Y563962D01*
X1089750Y566743D01*
X1083038Y563962D01*
X1082844Y563495D01*
X1038405D01*
X1037919Y564669D01*
X1054916Y581666D01*
X1056745Y586082D01*
Y601094D01*
X1057212Y601288D01*
X1059993Y608000D01*
X1057212Y614712D01*
X1050500Y617493D01*
X1050033Y617299D01*
X1021995Y645337D01*
Y811263D01*
X1023169Y811749D01*
X1032084Y802834D01*
X1032084Y802834D01*
X1036500Y801005D01*
X1122094D01*
X1122288Y800538D01*
X1129000Y797757D01*
X1135712Y800538D01*
X1138493Y807250D01*
X1135712Y813962D01*
X1129000Y816743D01*
X1122288Y813962D01*
X1122094Y813495D01*
X1039087D01*
X1020166Y832416D01*
X977265Y875317D01*
Y884448D01*
X976728Y885746D01*
X977824Y886200D01*
X979950Y891332D01*
X981220D01*
X983308Y886292D01*
X990020Y883511D01*
X996732Y886292D01*
X998820Y891332D01*
X1000090D01*
X1002216Y886200D01*
X1004693Y885174D01*
X1004388Y884438D01*
Y871582D01*
X1002288Y870712D01*
X999507Y864000D01*
X1002288Y857288D01*
X1009000Y854507D01*
X1015712Y857288D01*
X1018493Y864000D01*
X1015712Y870712D01*
X1013632Y871574D01*
Y884424D01*
X1013642Y884448D01*
X1013342Y885172D01*
X1015824Y886200D01*
X1018642Y893004D01*
X1015824Y899808D01*
X1009020Y902626D01*
D02*
G37*
G36*
X1228500Y825203D02*
X1221788Y822422D01*
X1219007Y815710D01*
X1221788Y808998D01*
X1228500Y806217D01*
X1234530Y808715D01*
X1244247Y798997D01*
X1246750Y797961D01*
X1284974D01*
X1286288Y794788D01*
X1293000Y792008D01*
X1299712Y794788D01*
X1302493Y801500D01*
X1299712Y808212D01*
X1293000Y810993D01*
X1286288Y808212D01*
X1284974Y805039D01*
X1248216D01*
X1237862Y815394D01*
X1237993Y815710D01*
X1235212Y822422D01*
X1228500Y825203D01*
D02*
G37*
G36*
X1129000Y791243D02*
X1122288Y788462D01*
X1120974Y785289D01*
X1090435D01*
X1087933Y784253D01*
X1086145Y782465D01*
X1081250Y784493D01*
X1074538Y781712D01*
X1071758Y775000D01*
X1074538Y768288D01*
X1081250Y765508D01*
X1087962Y768288D01*
X1090743Y775000D01*
X1090142Y776451D01*
X1091901Y778211D01*
X1120974D01*
X1122288Y775038D01*
X1129000Y772257D01*
X1135712Y775038D01*
X1138493Y781750D01*
X1135712Y788462D01*
X1129000Y791243D01*
D02*
G37*
G36*
X759500Y806825D02*
X752788Y804045D01*
X750007Y797333D01*
X752788Y790620D01*
X759500Y787840D01*
X766212Y790620D01*
X767526Y793793D01*
X776952D01*
X784072Y786673D01*
X782757Y783500D01*
X785538Y776788D01*
X792250Y774007D01*
X798962Y776788D01*
X801743Y783500D01*
X798962Y790212D01*
X792250Y792993D01*
X789077Y791678D01*
X780920Y799835D01*
X778418Y800872D01*
X767526D01*
X766212Y804045D01*
X759500Y806825D01*
D02*
G37*
G36*
X828750Y859908D02*
X822038Y857127D01*
X819257Y850415D01*
X822038Y843703D01*
X828750Y840922D01*
X830841Y841788D01*
X838128Y834501D01*
Y772871D01*
X836538Y772212D01*
X835867Y770594D01*
X834622Y770842D01*
Y801750D01*
X833268Y805018D01*
X784603Y853683D01*
X781335Y855037D01*
X767078D01*
X766212Y857127D01*
X759500Y859908D01*
X752788Y857127D01*
X750007Y850415D01*
X752788Y843703D01*
X759500Y840922D01*
X766212Y843703D01*
X767078Y845793D01*
X779420D01*
X825378Y799836D01*
Y760096D01*
X826732Y756828D01*
X834671Y748888D01*
X833805Y746798D01*
X836586Y740086D01*
X841697Y737969D01*
Y736594D01*
X837154Y734712D01*
X834374Y728000D01*
X835688Y724827D01*
X781901Y671039D01*
X767027D01*
X765712Y674212D01*
X759000Y676992D01*
X752288Y674212D01*
X749507Y667500D01*
X752288Y660788D01*
X759000Y658007D01*
X765712Y660788D01*
X767027Y663961D01*
X783367D01*
X785869Y664997D01*
X836615Y715743D01*
X837692Y715024D01*
X835508Y709750D01*
X836822Y706577D01*
X776034Y645789D01*
X767027D01*
X765712Y648962D01*
X759000Y651743D01*
X752288Y648962D01*
X749507Y642250D01*
X752288Y635538D01*
X759000Y632757D01*
X765712Y635538D01*
X767027Y638711D01*
X777500D01*
X780003Y639747D01*
X841827Y701572D01*
X845000Y700257D01*
X851712Y703038D01*
X853608Y707615D01*
X854878Y707362D01*
Y666150D01*
X856232Y662882D01*
X875023Y644091D01*
X874157Y642000D01*
X876938Y635288D01*
X883650Y632508D01*
X890362Y635288D01*
X893143Y642000D01*
X890362Y648712D01*
X883650Y651493D01*
X881560Y650627D01*
X864122Y668065D01*
Y775172D01*
X866212Y776038D01*
X868993Y782750D01*
X866212Y789462D01*
X859500Y792243D01*
X852788Y789462D01*
X850007Y782750D01*
X852788Y776038D01*
X854878Y775172D01*
Y712138D01*
X853608Y711885D01*
X851712Y716462D01*
X846854Y718475D01*
Y719745D01*
X850579Y721288D01*
X853359Y728000D01*
X850579Y734712D01*
X845468Y736829D01*
Y738204D01*
X850010Y740086D01*
X852790Y746798D01*
X850010Y753510D01*
X845149Y755524D01*
Y756794D01*
X849962Y758788D01*
X852743Y765500D01*
X849962Y772212D01*
X847372Y773285D01*
Y836415D01*
X846018Y839683D01*
X837377Y848325D01*
X838243Y850415D01*
X835462Y857127D01*
X828750Y859908D01*
D02*
G37*
G36*
X1128750Y766243D02*
X1122038Y763462D01*
X1120723Y760289D01*
X1089435D01*
X1086933Y759253D01*
X1085791Y758111D01*
X1081250Y759993D01*
X1074538Y757212D01*
X1071758Y750500D01*
X1074538Y743788D01*
X1081250Y741008D01*
X1087962Y743788D01*
X1090743Y750500D01*
X1089995Y752304D01*
X1090901Y753211D01*
X1120723D01*
X1122038Y750038D01*
X1128750Y747258D01*
X1135462Y750038D01*
X1138243Y756750D01*
X1135462Y763462D01*
X1128750Y766243D01*
D02*
G37*
G36*
X1293445Y752010D02*
X1286733Y749230D01*
X1283952Y742517D01*
X1284226Y741857D01*
X1231615Y689245D01*
X1228000Y690743D01*
X1221288Y687962D01*
X1218508Y681250D01*
X1221288Y674538D01*
X1228000Y671758D01*
X1234712Y674538D01*
X1237493Y681250D01*
X1236361Y683981D01*
X1287760Y735380D01*
X1293445Y733025D01*
X1300157Y735805D01*
X1302938Y742517D01*
X1300157Y749230D01*
X1293445Y752010D01*
D02*
G37*
G36*
X759250Y756325D02*
X752538Y753545D01*
X749758Y746833D01*
X752538Y740120D01*
X759250Y737340D01*
X765962Y740120D01*
X767277Y743293D01*
X782266D01*
X783108Y742451D01*
X782507Y741000D01*
X785288Y734288D01*
X792000Y731507D01*
X798712Y734288D01*
X801493Y741000D01*
X798712Y747712D01*
X792000Y750493D01*
X787105Y748465D01*
X786235Y749335D01*
X783732Y750372D01*
X767277D01*
X765962Y753545D01*
X759250Y756325D01*
D02*
G37*
G36*
X895250Y702993D02*
X888538Y700212D01*
X886958Y696399D01*
X885688D01*
X884212Y699962D01*
X877500Y702743D01*
X870788Y699962D01*
X868008Y693250D01*
X870788Y686538D01*
X877500Y683757D01*
X880673Y685072D01*
X918461Y647284D01*
Y613816D01*
X908823Y604178D01*
X905650Y605493D01*
X898938Y602712D01*
X896158Y596000D01*
X898938Y589288D01*
X905650Y586507D01*
X912362Y589288D01*
X915143Y596000D01*
X913828Y599173D01*
X924503Y609847D01*
X925539Y612350D01*
Y648750D01*
X924503Y651253D01*
X891573Y684182D01*
X892279Y685238D01*
X895250Y684007D01*
X898423Y685322D01*
X927511Y656234D01*
Y604026D01*
X924338Y602712D01*
X921557Y596000D01*
X924338Y589288D01*
X931050Y586507D01*
X937762Y589288D01*
X940543Y596000D01*
X937762Y602712D01*
X934589Y604026D01*
Y657700D01*
X933553Y660203D01*
X903428Y690327D01*
X904743Y693500D01*
X901962Y700212D01*
X895250Y702993D01*
D02*
G37*
G36*
X806750Y628743D02*
X800038Y625962D01*
X799378Y624370D01*
X764123D01*
X759000Y626493D01*
X752288Y623712D01*
X749507Y617000D01*
X752288Y610288D01*
X759000Y607507D01*
X765712Y610288D01*
X766372Y611880D01*
X801627D01*
X806750Y609757D01*
X813462Y612538D01*
X816243Y619250D01*
X813462Y625962D01*
X806750Y628743D01*
D02*
G37*
G36*
X951000Y781243D02*
X944288Y778462D01*
X941507Y771750D01*
X944288Y765038D01*
X949660Y762812D01*
Y761438D01*
X944288Y759212D01*
X941507Y752500D01*
X944288Y745788D01*
X949183Y743760D01*
Y742490D01*
X944288Y740462D01*
X941507Y733750D01*
X944288Y727038D01*
X948961Y725102D01*
Y704213D01*
X945788Y702899D01*
X943008Y696186D01*
X945788Y689474D01*
X952500Y686694D01*
X952911Y686420D01*
Y604026D01*
X949738Y602712D01*
X946957Y596000D01*
X949738Y589288D01*
X956450Y586507D01*
X963162Y589288D01*
X965943Y596000D01*
X963162Y602712D01*
X959989Y604026D01*
Y689801D01*
X959669Y690576D01*
X961993Y696186D01*
X959212Y702899D01*
X956039Y704213D01*
Y726345D01*
X957712Y727038D01*
X960493Y733750D01*
X958049Y739650D01*
X959126Y740369D01*
X974461Y725034D01*
Y591466D01*
X962211Y579217D01*
X949577D01*
X947075Y578180D01*
X936323Y567428D01*
X933150Y568743D01*
X926438Y565962D01*
X923658Y559250D01*
X926438Y552538D01*
X933150Y549757D01*
X939862Y552538D01*
X942643Y559250D01*
X941328Y562423D01*
X951043Y572138D01*
X963677D01*
X966180Y573175D01*
X980503Y587497D01*
X981539Y590000D01*
Y726500D01*
X980503Y729003D01*
X959471Y750034D01*
X960493Y752500D01*
X957712Y759212D01*
X952340Y761438D01*
Y762812D01*
X956294Y764450D01*
X991063Y729682D01*
Y579837D01*
X976386Y565160D01*
X966393D01*
X965262Y565962D01*
X958550Y568743D01*
X951838Y565962D01*
X949057Y559250D01*
X951838Y552538D01*
X958550Y549757D01*
X965262Y552538D01*
X967558Y558081D01*
X977852D01*
X980355Y559118D01*
X997105Y575868D01*
X998142Y578371D01*
Y731148D01*
X997105Y733651D01*
X960057Y770698D01*
X960493Y771750D01*
X957712Y778462D01*
X951000Y781243D01*
D02*
G37*
G36*
X884750Y628993D02*
X878038Y626212D01*
X875257Y619500D01*
X876164Y617311D01*
X875834Y616981D01*
X874005Y612565D01*
Y602906D01*
X873538Y602712D01*
X870758Y596000D01*
X873538Y589288D01*
X875055Y588660D01*
Y564554D01*
X872858Y559250D01*
X875638Y552538D01*
X882350Y549757D01*
X889062Y552538D01*
X891843Y559250D01*
X889062Y565962D01*
X887545Y566591D01*
Y590696D01*
X889743Y596000D01*
X886962Y602712D01*
X886495Y602906D01*
Y609978D01*
X887780Y611263D01*
X891462Y612788D01*
X894243Y619500D01*
X891462Y626212D01*
X884750Y628993D01*
D02*
G37*
%LPD*%
D13*
X799750Y1022750D02*
D03*
X799000Y1097500D02*
D03*
X1179750Y1100250D02*
D03*
X1180500Y1025500D02*
D03*
D26*
X934020Y1106254D02*
D03*
X1046020Y1106504D02*
D03*
D28*
X828750Y850415D02*
X842750Y836415D01*
Y766000D02*
Y836415D01*
X759500Y850415D02*
X781335D01*
X830000Y801750D01*
X1009000Y864000D02*
X1009010Y864010D01*
Y884438D01*
X1009020Y884448D01*
X859500Y666150D02*
Y782750D01*
Y666150D02*
X883650Y642000D01*
X830000Y760096D02*
Y801750D01*
Y760096D02*
X843298Y746798D01*
D29*
X954000Y771750D02*
X994602Y731148D01*
Y578371D02*
Y731148D01*
X978000Y590000D02*
Y726500D01*
X952000Y752500D02*
X978000Y726500D01*
X951000Y733750D02*
X952500Y732250D01*
Y696186D02*
Y732250D01*
X977852Y561621D02*
X994602Y578371D01*
X958550Y559250D02*
X960655Y561355D01*
X966393Y561621D02*
X977852D01*
X960655Y561355D02*
X966127D01*
X966393Y561621D01*
X905650Y596000D02*
X922000Y612350D01*
Y648750D01*
X956450Y596000D02*
Y689801D01*
X952500Y693751D02*
X956450Y689801D01*
X952500Y693751D02*
Y696186D01*
X895250Y693500D02*
X931050Y657700D01*
Y596000D02*
Y657700D01*
X759500Y797333D02*
X778418D01*
X792250Y783500D01*
X759250Y746833D02*
X783732D01*
X789565Y741000D01*
X792000D01*
X759000Y667500D02*
X783367D01*
X843867Y728000D01*
X759000Y642250D02*
X777500D01*
X845000Y709750D01*
X933150Y559250D02*
X949577Y575677D01*
X963677D01*
X978000Y590000D01*
X1089435Y756750D02*
X1128750D01*
X1083185Y750500D02*
X1089435Y756750D01*
X1080750Y750500D02*
X1083185D01*
X1090435Y781750D02*
X1129000D01*
X1083685Y775000D02*
X1090435Y781750D01*
X1081250Y775000D02*
X1083685D01*
X1228500Y815710D02*
X1228863Y816073D01*
X1232177D01*
X1246750Y801500D01*
X1289820Y742445D02*
X1293445D01*
X1246750Y801500D02*
X1293000D01*
X842750Y766000D02*
X843250Y765500D01*
X1228625Y681250D02*
X1289820Y742445D01*
X1228000Y681250D02*
X1228625D01*
X845000Y709750D02*
X845000D01*
X877500Y693250D02*
X922000Y648750D01*
X1080750Y750500D02*
X1081250Y751000D01*
D30*
X880250Y596000D02*
X881300Y594950D01*
Y560300D02*
Y594950D01*
Y560300D02*
X882350Y559250D01*
X880250Y596000D02*
Y612565D01*
X884750Y617065D01*
Y619500D01*
X805625Y618125D02*
X806750Y619250D01*
X759000Y617000D02*
X760125Y618125D01*
X805625D01*
X759000Y566500D02*
X809750D01*
X829725Y586475D01*
X856950Y559250D01*
X829725Y586475D02*
Y624475D01*
X856950Y559250D02*
X878200Y538000D01*
X1002418D01*
X1036500Y807250D02*
X1129000D01*
X1015750Y828000D02*
X1036500Y807250D01*
X971020Y872730D02*
Y884448D01*
Y872730D02*
X1015750Y828000D01*
X1158418Y557250D02*
X1158917Y556750D01*
X1229750D01*
X1230250Y556250D01*
X1211500Y620750D02*
X1211750Y621000D01*
X1211500Y609000D02*
Y620750D01*
X1159750Y557250D02*
X1211500Y609000D01*
X1158418Y557250D02*
X1159750D01*
X1021667D02*
X1050500Y586082D01*
Y608000D01*
X1021667Y557250D02*
X1089750D01*
X1002418Y538000D02*
X1021667Y557250D01*
X1089750D02*
X1158418D01*
X1015750Y642750D02*
X1050500Y608000D01*
X812500Y639250D02*
X828500Y623250D01*
X812500Y639250D02*
Y646750D01*
X1015750Y642750D02*
Y828000D01*
X847250Y642000D02*
X858250D01*
X828500Y623250D02*
X847250Y642000D01*
D33*
X1021667Y557250D02*
D03*
Y582250D02*
D03*
X1158418D02*
D03*
Y557250D02*
D03*
X1089750D02*
D03*
Y582250D02*
D03*
X759000Y566500D02*
D03*
Y591750D02*
D03*
Y617000D02*
D03*
Y642250D02*
D03*
Y667500D02*
D03*
X1128750Y756750D02*
D03*
X1129000Y731250D02*
D03*
Y781750D02*
D03*
Y807250D02*
D03*
X759500Y797333D02*
D03*
Y771833D02*
D03*
Y721332D02*
D03*
X759250Y746833D02*
D03*
X1230250Y581750D02*
D03*
Y556250D02*
D03*
X828750Y850415D02*
D03*
Y875915D02*
D03*
X759500D02*
D03*
Y850415D02*
D03*
X931050Y596000D02*
D03*
X905650D02*
D03*
X880250D02*
D03*
X854850D02*
D03*
X956450D02*
D03*
X882350Y559250D02*
D03*
X907750D02*
D03*
X933150D02*
D03*
X958550D02*
D03*
X856950D02*
D03*
X883650Y642000D02*
D03*
X909050D02*
D03*
X858250D02*
D03*
X990020Y893004D02*
D03*
X951000Y771750D02*
D03*
Y752500D02*
D03*
Y733750D02*
D03*
X1050500Y608000D02*
D03*
X1228500Y815710D02*
D03*
X1447750Y964750D02*
D03*
X1412750D02*
D03*
X1377750D02*
D03*
X1342750D02*
D03*
X1221250D02*
D03*
X1186250D02*
D03*
X1151250D02*
D03*
X1116250D02*
D03*
X844000D02*
D03*
X809000D02*
D03*
X774000D02*
D03*
X739000D02*
D03*
X704000D02*
D03*
X669000D02*
D03*
X634000D02*
D03*
X599000D02*
D03*
X564000D02*
D03*
X529000D02*
D03*
X1242250Y1080500D02*
D03*
X1266250Y1118250D02*
D03*
X1292250Y1080500D02*
D03*
X1216000Y1141750D02*
D03*
X1155250Y1151750D02*
D03*
X1105000Y1151500D02*
D03*
X1035000D02*
D03*
X863000Y1080000D02*
D03*
Y1122250D02*
D03*
X903000Y1146000D02*
D03*
X799500D02*
D03*
X747500Y1155000D02*
D03*
X957500D02*
D03*
X852500D02*
D03*
X1346649Y875000D02*
D03*
X659500Y613750D02*
D03*
Y737000D02*
D03*
Y875000D02*
D03*
X1050250D02*
D03*
X1348149Y613750D02*
D03*
X1346649Y737000D02*
D03*
X1160250Y700250D02*
D03*
X1161250Y758750D02*
D03*
X1161500Y800750D02*
D03*
X845250Y675750D02*
D03*
X899000Y875000D02*
D03*
X1009000Y864000D02*
D03*
X1211750Y621000D02*
D03*
X859500Y782750D02*
D03*
X792250Y783500D02*
D03*
X792000Y741000D02*
D03*
X812500Y646750D02*
D03*
X843250Y765500D02*
D03*
X843298Y746798D02*
D03*
X952500Y696186D02*
D03*
X1293000Y801500D02*
D03*
X1293445Y742517D02*
D03*
X1228000Y681250D02*
D03*
X806750Y619250D02*
D03*
X884750Y619500D02*
D03*
X845000Y709750D02*
D03*
X843867Y728000D02*
D03*
X877500Y693250D02*
D03*
X895250Y693500D02*
D03*
X1081250Y750500D02*
D03*
Y775000D02*
D03*
D34*
X799750Y1022750D02*
D03*
X799000Y1097500D02*
D03*
X1009020Y893004D02*
D03*
X971020D02*
D03*
X1179750Y1100250D02*
D03*
X1180500Y1025500D02*
D03*
D35*
X1046020Y1107204D02*
D03*
X934020Y1106504D02*
D03*
D36*
X1400750Y925500D02*
D03*
X579250D02*
D03*
M02*
